<?xml version="1.0" encoding="UTF-8" standalone="no"?>
<svg width="100" height="100" viewBox="0 0 100 100" xmlns="http://www.w3.org/2000/svg">
  <!-- Achtergrond cirkel -->
  <circle cx="50" cy="50" r="45" fill="#f5f5f5" />
  
  <!-- Huizen groep -->
  <g transform="translate(10, 30)">
    <!-- Eerste huis (links) -->
    <rect x="5" y="20" width="20" height="20" fill="#5b7fff" rx="2" />
    <polygon points="5,20 15,10 25,20" fill="#5b7fff" />
    <rect x="11" y="30" width="8" height="10" fill="#ffffff" />
    
    <!-- Tweede huis (rechts) -->
    <rect x="45" y="20" width="20" height="20" fill="#3185fc" rx="2" />
    <polygon points="45,20 55,10 65,20" fill="#3185fc" />
    <rect x="51" y="30" width="8" height="10" fill="#ffffff" />
    
    <!-- Verbindingslijn tussen huizen -->
    <path d="M25,30 C35,15 35,40 45,30" stroke="#ff7b54" stroke-width="2" fill="none" />
    
    <!-- Figuren (mensen) -->
    <circle cx="15" cy="45" r="3" fill="#ff7b54" />
    <circle cx="55" cy="45" r="3" fill="#ff7b54" />
    <path d="M15,48 L15,55" stroke="#ff7b54" stroke-width="2" />
    <path d="M55,48 L55,55" stroke="#ff7b54" stroke-width="2" />
    
    <!-- Verbindingslijn tussen mensen -->
    <path d="M15,50 C25,45 45,45 55,50" stroke="#ff7b54" stroke-width="1.5" stroke-dasharray="2,2" />
  </g>
</svg> 