<?xml version="1.0" encoding="UTF-8" standalone="no"?>
<svg width="300" height="100" viewBox="0 0 300 100" fill="none" xmlns="http://www.w3.org/2000/svg">
  <!-- Achtergrond cirkel voor logo -->
  <circle cx="50" cy="50" r="40" fill="#3185FC" />
  
  <!-- Silhouetten van mensen die samen actief zijn -->
  <path d="M40 65C40 65 45 55 50 55C55 55 60 65 60 65" stroke="white" stroke-width="4" stroke-linecap="round" />
  <circle cx="50" cy="45" r="8" fill="white" />
  
  <path d="M25 70C25 70 30 60 35 60C40 60 45 70 45 70" stroke="white" stroke-width="4" stroke-linecap="round" />
  <circle cx="35" cy="50" r="8" fill="white" />
  
  <path d="M55 70C55 70 60 60 65 60C70 60 75 70 75 70" stroke="white" stroke-width="4" stroke-linecap="round" />
  <circle cx="65" cy="50" r="8" fill="white" />
  
  <!-- Tekst SamenActief -->
  <path d="M110 45C110 40 115 35 122 35C129 35 133 40 133 45C133 55 110 55 110 65C110 70 115 75 122 75C129 75 133 70 133 65" stroke="#3185FC" stroke-width="4" stroke-linecap="round" stroke-linejoin="round" />
  <path d="M140 35H145V65C145 70 150 75 155 75C160 75 165 70 165 65V35H170" stroke="#3185FC" stroke-width="4" stroke-linecap="round" stroke-linejoin="round" />
  <path d="M180 35H175V75H195" stroke="#3185FC" stroke-width="4" stroke-linecap="round" stroke-linejoin="round" />
  <path d="M205 35V75" stroke="#3185FC" stroke-width="4" stroke-linecap="round" />
  <path d="M200 35H210" stroke="#3185FC" stroke-width="4" stroke-linecap="round" />
  <path d="M225 35H230V75" stroke="#3185FC" stroke-width="4" stroke-linecap="round" stroke-linejoin="round" />
  <path d="M215 55H245" stroke="#3185FC" stroke-width="4" stroke-linecap="round" />
  <path d="M250 75V35H260C270 35 270 55 260 55H255" stroke="#3185FC" stroke-width="4" stroke-linecap="round" stroke-linejoin="round" />
  <path d="M255 55L270 75" stroke="#3185FC" stroke-width="4" stroke-linecap="round" stroke-linejoin="round" />
  <path d="M280 35H285V75" stroke="#3185FC" stroke-width="4" stroke-linecap="round" />
  <path d="M275 75H295" stroke="#3185FC" stroke-width="4" stroke-linecap="round" />
</svg> 